HIERARCHY
ROOT Root
{
  OFFSET 0.0 0.0 0.0
  CHANNELS 6 Xposition Yposition Zposition Zrotation Yrotation Xrotation
  JOINT Hips
  {
    OFFSET 0.0 100.0 0.0
    CHANNELS 6 Xposition Yposition Zposition Zrotation Yrotation Xrotation
    JOINT Spine1
    {
      OFFSET 5.003913 -0.037094 -0.013727
      CHANNELS 3 Zrotation Yrotation Xrotation
      JOINT Spine2
      {
        OFFSET 7.125363 -1e-06 0.0
        CHANNELS 3 Zrotation Yrotation Xrotation
        JOINT Chest
        {
          OFFSET 7.594027 1e-06 0.0
          CHANNELS 3 Zrotation Yrotation Xrotation
          JOINT Neck1
          {
            OFFSET 26.313086 -0.460272 -0.181672
            CHANNELS 3 Zrotation Yrotation Xrotation
            JOINT Neck2
            {
              OFFSET 8.045911 0.0 0.0
              CHANNELS 3 Zrotation Yrotation Xrotation
              JOINT Head
              {
                OFFSET 6.432774 0.0 0.0
                CHANNELS 3 Zrotation Yrotation Xrotation
                JOINT HeadEnd
                {
                  OFFSET 16.169773 0.06451 0.00362
                  CHANNELS 3 Zrotation Yrotation Xrotation
                }
                JOINT Jaw
                {
                  OFFSET 0.108741 3.12938 0.002639
                  CHANNELS 3 Zrotation Yrotation Xrotation
                }
                JOINT LeftEye
                {
                  OFFSET 4.45173 8.166359 3.206392
                  CHANNELS 3 Zrotation Yrotation Xrotation
                }
                JOINT RightEye
                {
                  OFFSET 4.436895 8.135758 -3.222429
                  CHANNELS 3 Zrotation Yrotation Xrotation
                }
              }
            }
          }
          JOINT LeftShoulder
          {
            OFFSET 23.218927 5.195579 1.621656
            CHANNELS 3 Zrotation Yrotation Xrotation
            JOINT LeftArm
            {
              OFFSET 15.902118 2e-06 -2e-06
              CHANNELS 3 Zrotation Yrotation Xrotation
              JOINT LeftForeArm
              {
                OFFSET 28.739307 0.0 -1e-06
                CHANNELS 3 Zrotation Yrotation Xrotation
                JOINT LeftHand
                {
                  OFFSET 27.093981 -4e-06 0.0
                  CHANNELS 3 Zrotation Yrotation Xrotation
                  JOINT LeftHandThumb1
                  {
                    OFFSET 2.276781 3.380274 0.83384
                    CHANNELS 3 Zrotation Yrotation Xrotation
                    JOINT LeftHandThumb2
                    {
                      OFFSET 4.705309 -1e-06 -1e-06
                      CHANNELS 3 Zrotation Yrotation Xrotation
                      JOINT LeftHandThumb3
                      {
                        OFFSET 2.798515 0.0 3e-06
                        CHANNELS 3 Zrotation Yrotation Xrotation
                        JOINT LeftHandThumbEnd
                        {
                          OFFSET 3.180793 4e-06 -4e-06
                          CHANNELS 3 Zrotation Yrotation Xrotation
                        }
                      }
                    }
                  }
                  JOINT LeftHandIndex1
                  {
                    OFFSET 3.247786 2.352677 0.137192
                    CHANNELS 3 Zrotation Yrotation Xrotation
                    JOINT LeftHandIndex2
                    {
                      OFFSET 6.367095 1e-06 0.0
                      CHANNELS 3 Zrotation Yrotation Xrotation
                      JOINT LeftHandIndex3
                      {
                        OFFSET 3.662364 0.0 0.0
                        CHANNELS 3 Zrotation Yrotation Xrotation
                        JOINT LeftHandIndex4
                        {
                          OFFSET 2.329242 4e-06 -4e-06
                          CHANNELS 3 Zrotation Yrotation Xrotation
                          JOINT LeftHandIndexEnd
                          {
                            OFFSET 2.767823 1e-06 0.0
                            CHANNELS 3 Zrotation Yrotation Xrotation
                          }
                        }
                      }
                    }
                  }
                  JOINT LeftHandMiddle1
                  {
                    OFFSET 3.163612 0.945023 -0.406112
                    CHANNELS 3 Zrotation Yrotation Xrotation
                    JOINT LeftHandMiddle2
                    {
                      OFFSET 6.276789 3e-06 0.0
                      CHANNELS 3 Zrotation Yrotation Xrotation
                      JOINT LeftHandMiddle3
                      {
                        OFFSET 4.35652 -1e-06 4e-06
                        CHANNELS 3 Zrotation Yrotation Xrotation
                        JOINT LeftHandMiddle4
                        {
                          OFFSET 2.996877 0.0 8e-06
                          CHANNELS 3 Zrotation Yrotation Xrotation
                          JOINT LeftHandMiddleEnd
                          {
                            OFFSET 2.323256 3e-06 -4e-06
                            CHANNELS 3 Zrotation Yrotation Xrotation
                          }
                        }
                      }
                    }
                  }
                  JOINT LeftHandRing1
                  {
                    OFFSET 2.882606 -0.309162 0.107445
                    CHANNELS 3 Zrotation Yrotation Xrotation
                    JOINT LeftHandRing2
                    {
                      OFFSET 6.033198 0.0 4e-06
                      CHANNELS 3 Zrotation Yrotation Xrotation
                      JOINT LeftHandRing3
                      {
                        OFFSET 4.350578 3e-06 0.0
                        CHANNELS 3 Zrotation Yrotation Xrotation
                        JOINT LeftHandRing4
                        {
                          OFFSET 2.651321 2e-06 -7e-06
                          CHANNELS 3 Zrotation Yrotation Xrotation
                          JOINT LeftHandRingEnd
                          {
                            OFFSET 1.937663 1e-06 -4e-06
                            CHANNELS 3 Zrotation Yrotation Xrotation
                          }
                        }
                      }
                    }
                  }
                  JOINT LeftHandPinky1
                  {
                    OFFSET 2.865315 -1.525436 0.575687
                    CHANNELS 3 Zrotation Yrotation Xrotation
                    JOINT LeftHandPinky2
                    {
                      OFFSET 5.54936 1e-06 -8e-06
                      CHANNELS 3 Zrotation Yrotation Xrotation
                      JOINT LeftHandPinky3
                      {
                        OFFSET 3.070974 0.0 -4e-06
                        CHANNELS 3 Zrotation Yrotation Xrotation
                        JOINT LeftHandPinky4
                        {
                          OFFSET 1.549672 1e-06 0.0
                          CHANNELS 3 Zrotation Yrotation Xrotation
                          JOINT LeftHandPinkyEnd
                          {
                            OFFSET 1.952123 0.0 0.0
                            CHANNELS 3 Zrotation Yrotation Xrotation
                          }
                        }
                      }
                    }
                  }
                }
              }
            }
          }
          JOINT RightShoulder
          {
            OFFSET 23.161716 5.296122 -1.380114
            CHANNELS 3 Zrotation Yrotation Xrotation
            JOINT RightArm
            {
              OFFSET -16.027195 -2e-06 1.1e-05
              CHANNELS 3 Zrotation Yrotation Xrotation
              JOINT RightForeArm
              {
                OFFSET -28.736639 4e-06 2e-06
                CHANNELS 3 Zrotation Yrotation Xrotation
                JOINT RightHand
                {
                  OFFSET -27.133619 6e-06 0.0
                  CHANNELS 3 Zrotation Yrotation Xrotation
                  JOINT RightHandThumb1
                  {
                    OFFSET -2.274328 -3.351035 -0.83067
                    CHANNELS 3 Zrotation Yrotation Xrotation
                    JOINT RightHandThumb2
                    {
                      OFFSET -4.703594 -3e-06 2e-06
                      CHANNELS 3 Zrotation Yrotation Xrotation
                      JOINT RightHandThumb3
                      {
                        OFFSET -2.794935 -4e-06 -3e-06
                        CHANNELS 3 Zrotation Yrotation Xrotation
                        JOINT RightHandThumbEnd
                        {
                          OFFSET -3.183852 4e-06 1e-06
                          CHANNELS 3 Zrotation Yrotation Xrotation
                        }
                      }
                    }
                  }
                  JOINT RightHandIndex1
                  {
                    OFFSET -3.253496 -2.33755 -0.127667
                    CHANNELS 3 Zrotation Yrotation Xrotation
                    JOINT RightHandIndex2
                    {
                      OFFSET -6.344434 0.0 0.0
                      CHANNELS 3 Zrotation Yrotation Xrotation
                      JOINT RightHandIndex3
                      {
                        OFFSET -3.654871 0.0 -8e-06
                        CHANNELS 3 Zrotation Yrotation Xrotation
                        JOINT RightHandIndex4
                        {
                          OFFSET -2.327586 -1e-06 0.0
                          CHANNELS 3 Zrotation Yrotation Xrotation
                          JOINT RightHandIndexEnd
                          {
                            OFFSET -2.770001 3e-06 8e-06
                            CHANNELS 3 Zrotation Yrotation Xrotation
                          }
                        }
                      }
                    }
                  }
                  JOINT RightHandMiddle1
                  {
                    OFFSET -3.168223 -0.944764 0.411762
                    CHANNELS 3 Zrotation Yrotation Xrotation
                    JOINT RightHandMiddle2
                    {
                      OFFSET -6.266691 -1e-06 -4e-06
                      CHANNELS 3 Zrotation Yrotation Xrotation
                      JOINT RightHandMiddle3
                      {
                        OFFSET -4.348901 0.0 0.0
                        CHANNELS 3 Zrotation Yrotation Xrotation
                        JOINT RightHandMiddle4
                        {
                          OFFSET -3.00024 2e-06 -4e-06
                          CHANNELS 3 Zrotation Yrotation Xrotation
                          JOINT RightHandMiddleEnd
                          {
                            OFFSET -2.321477 -4e-06 -4e-06
                            CHANNELS 3 Zrotation Yrotation Xrotation
                          }
                        }
                      }
                    }
                  }
                  JOINT RightHandRing1
                  {
                    OFFSET -2.885654 0.293261 -0.119232
                    CHANNELS 3 Zrotation Yrotation Xrotation
                    JOINT RightHandRing2
                    {
                      OFFSET -6.032835 -1e-06 -4e-06
                      CHANNELS 3 Zrotation Yrotation Xrotation
                      JOINT RightHandRing3
                      {
                        OFFSET -4.33881 0.0 -4e-06
                        CHANNELS 3 Zrotation Yrotation Xrotation
                        JOINT RightHandRing4
                        {
                          OFFSET -2.654903 -4e-06 -4e-06
                          CHANNELS 3 Zrotation Yrotation Xrotation
                          JOINT RightHandRingEnd
                          {
                            OFFSET -1.935122 0.0 4e-06
                            CHANNELS 3 Zrotation Yrotation Xrotation
                          }
                        }
                      }
                    }
                  }
                  JOINT RightHandPinky1
                  {
                    OFFSET -2.866241 1.503904 -0.60527
                    CHANNELS 3 Zrotation Yrotation Xrotation
                    JOINT RightHandPinky2
                    {
                      OFFSET -5.553177 -2e-06 0.0
                      CHANNELS 3 Zrotation Yrotation Xrotation
                      JOINT RightHandPinky3
                      {
                        OFFSET -3.062664 -1e-06 -4e-06
                        CHANNELS 3 Zrotation Yrotation Xrotation
                        JOINT RightHandPinky4
                        {
                          OFFSET -1.546529 2e-06 4e-06
                          CHANNELS 3 Zrotation Yrotation Xrotation
                          JOINT RightHandPinkyEnd
                          {
                            OFFSET -1.952341 0.0 -4e-06
                            CHANNELS 3 Zrotation Yrotation Xrotation
                          }
                        }
                      }
                    }
                  }
                }
              }
            }
          }
        }
      }
    }
    JOINT LeftLeg
    {
      OFFSET -8.443107 2.567604 10.043214
      CHANNELS 3 Zrotation Yrotation Xrotation
      JOINT LeftShin
      {
        OFFSET 43.229198 1e-06 -1e-06
        CHANNELS 3 Zrotation Yrotation Xrotation
        JOINT LeftFoot
        {
          OFFSET 42.298611 1e-06 1e-06
          CHANNELS 3 Zrotation Yrotation Xrotation
          JOINT LeftToeBase
          {
            OFFSET 14.165858 1e-06 0.0
            CHANNELS 3 Zrotation Yrotation Xrotation
            JOINT LeftToeEnd
            {
              OFFSET 6.7141 -0.234461 0.0
              CHANNELS 3 Zrotation Yrotation Xrotation
            }
          }
        }
      }
    }
    JOINT RightLeg
    {
      OFFSET -8.303923 2.592729 -10.047278
      CHANNELS 3 Zrotation Yrotation Xrotation
      JOINT RightShin
      {
        OFFSET -43.369682 0.0 1e-06
        CHANNELS 3 Zrotation Yrotation Xrotation
        JOINT RightFoot
        {
          OFFSET -42.260784 4e-06 2e-06
          CHANNELS 3 Zrotation Yrotation Xrotation
          JOINT RightToeBase
          {
            OFFSET -14.222245 -2e-06 -1e-06
            CHANNELS 3 Zrotation Yrotation Xrotation
            JOINT RightToeEnd
            {
              OFFSET -6.660062 0.232574 -2e-06
              CHANNELS 3 Zrotation Yrotation Xrotation
            }
          }
        }
      }
    }
  }
}
MOTION
Frames: 4
Frame Time: 0.03333333333333333
0.000000 0.000000 0.000000 0.000000 -0.000000 0.000000 0.039661 99.677979 -0.125259 89.038437 7.801754 90.225922 0.572245 0.070708 0.021658 -10.532267 -0.396471 -0.051969 18.262678 0.631891 -1.604322 22.973349 0.326351 2.483069 -2.558976 -0.633199 -0.491912 -33.391045 0.691514 -1.720188 0.000007 -0.000000 -0.000000 0.011411 0.002700 0.055354 0.104231 -0.004282 0.050115 0.076829 0.007704 0.070513 -108.254562 -75.479660 121.705231 43.366699 -63.535404 8.680799 26.396427 0.014975 -0.129878 -0.014343 -3.253625 8.696506 17.636677 -26.322744 52.411259 -19.466690 -14.395606 29.410442 0.000015 -8.774858 -0.000010 15.709410 -17.861076 6.195863 -0.609782 -1.795659 -3.889333 -4.807121 -11.046851 -2.937855 -0.000023 -20.976118 -0.000011 -5.020019 -25.033756 -4.031936 0.000004 0.000005 0.000001 -10.634565 -5.686996 -3.565589 10.573280 -17.922991 -3.113906 -0.000014 -13.821270 -0.000008 -0.501798 -31.181740 -4.027082 -11.235024 -59.437229 7.375214 -13.982754 -7.150230 -2.875041 13.772754 -8.401497 -3.218239 0.347687 -34.211727 0.771647 -0.963048 -17.733496 2.621016 -0.000003 0.000000 0.000001 -17.346491 -20.095285 -4.201777 21.757622 -1.638351 3.866454 -0.000006 -6.338851 -0.000005 -1.697626 -22.591908 -6.194075 -0.000001 -0.000001 -0.000001 45.841541 -74.283257 149.865509 38.341908 -59.111565 9.384812 24.727968 -0.236189 0.009737 -2.579557 -1.708981 7.894833 22.182203 -20.375900 49.933414 -16.701866 -16.743603 28.476599 0.000023 -12.690693 -0.000006 15.913011 -17.934286 2.953811 -0.105920 -1.513861 -4.275887 -5.039079 -5.612906 -2.953563 -0.000015 -11.020593 -0.000005 -6.111386 -15.895490 -3.840513 0.000000 0.000000 -0.000001 -10.283422 -5.680323 -4.341841 11.028337 -11.302440 -2.372638 -1.384309 -14.238678 -6.320162 -0.625475 -26.924444 -3.827667 -4.449064 -50.326859 -3.710005 -13.708594 -7.363524 -3.720937 18.141230 -14.052773 -3.242686 -0.000021 -18.787392 -0.000020 -0.429720 -8.456114 2.555516 -0.000003 0.000003 0.000001 -15.923644 -20.094584 -5.473577 30.419378 -7.190810 1.735956 -0.000008 -8.162972 -0.000010 -1.861937 -22.861677 -6.168040 -0.000000 -0.000004 -0.000003 -169.377335 -3.306533 0.059481 5.430089 -0.086108 0.164821 -76.782272 -8.564754 -5.884194 -5.584649 1.564851 2.151424 -0.999997 -0.000000 0.000000 10.404428 -1.681848 -3.312464 5.265940 -0.004418 0.167193 -77.625526 -4.855630 -6.808680 -6.064538 0.660101 1.653499 -1.000002 -0.000000 0.000000
0.000000 0.000000 0.000000 0.000000 -0.000000 0.000000 0.025038 99.712143 -0.146757 89.024910 7.800448 90.166138 0.574192 0.032858 0.017321 -10.524174 -0.381719 -0.019194 18.258598 0.633028 -1.593363 22.925447 0.453601 2.498898 -2.541611 -0.670374 -0.509666 -33.381893 0.648293 -1.792516 0.000006 -0.000000 0.000000 0.017190 0.011293 0.068717 0.115894 -0.002484 0.068099 0.086731 0.022927 0.079354 -108.462074 -75.472610 121.918411 43.235966 -63.424515 8.622107 26.337690 -0.051368 -0.148341 0.119228 -3.384827 8.867866 17.636549 -26.322680 52.411251 -19.466612 -14.395585 29.410410 0.000023 -8.774824 -0.000002 15.762579 -17.861649 6.210666 -0.609781 -1.795655 -3.889328 -4.807114 -11.046815 -2.937854 -0.000043 -20.976002 -0.000016 -5.020005 -25.033602 -4.031939 0.000003 0.000005 -0.000000 -10.634539 -5.686992 -3.565583 10.573228 -17.922913 -3.113904 -0.000028 -13.821199 -0.000014 -0.501811 -31.181541 -4.027088 -11.325547 -59.579842 7.501238 -13.982724 -7.150227 -2.875036 13.772707 -8.401452 -3.218242 0.347660 -34.211533 0.771632 -0.963052 -17.733389 2.620990 -0.000004 0.000000 0.000002 -17.346458 -20.095255 -4.201771 21.757557 -1.638319 3.866430 -0.000013 -6.338821 -0.000005 -1.697634 -22.591776 -6.194057 -0.000002 -0.000002 -0.000003 45.620972 -74.236366 150.140747 38.055470 -58.943958 8.952058 24.983952 -0.166364 0.018284 -2.444086 -1.474290 8.293980 22.182089 -20.375875 49.933464 -16.701773 -16.743546 28.476595 0.000044 -12.690626 0.000002 15.933667 -17.914703 2.897612 -0.105925 -1.513858 -4.275890 -5.039067 -5.612898 -2.953562 -0.000037 -11.020546 -0.000009 -6.111363 -15.895430 -3.840517 0.000001 -0.000001 -0.000001 -10.283396 -5.680326 -4.341841 11.028269 -11.302381 -2.372636 -1.384319 -14.238623 -6.320161 -0.625497 -26.924276 -3.827696 -4.338138 -50.220936 -3.793355 -13.708558 -7.363529 -3.720943 18.141119 -14.052693 -3.242677 -0.000057 -18.787304 -0.000029 -0.429739 -8.456067 2.555497 -0.000002 0.000002 -0.000001 -15.923616 -20.094564 -5.473580 30.419239 -7.190727 1.735954 -0.000025 -8.162935 -0.000006 -1.861963 -22.861559 -6.168033 0.000001 -0.000006 -0.000003 -169.374557 -3.315101 0.075838 5.425415 -0.067341 0.159962 -76.835098 -8.659086 -5.839390 -5.692321 1.568618 2.146228 -1.000005 0.000000 0.000000 10.408505 -1.690289 -3.343256 5.231731 -0.012269 0.138439 -77.615082 -4.755353 -6.785138 -6.215002 0.658327 1.646344 -1.000004 0.000001 0.000000
0.000000 0.000000 0.000000 0.000000 -0.000000 0.000000 0.038811 99.735458 -0.179319 89.004425 7.808542 90.120659 0.581780 0.007698 0.020349 -10.524127 -0.386689 0.000707 18.258499 0.620121 -1.581751 22.874729 0.600553 2.548827 -2.527604 -0.693067 -0.539303 -33.373451 0.615312 -1.829154 0.000006 0.000000 0.000000 0.023867 0.011521 0.052776 0.116782 -0.009509 0.055013 0.089934 0.030088 0.060444 -108.634117 -75.441406 122.102119 43.113754 -63.289963 8.698178 26.257324 -0.091572 -0.154341 0.217060 -3.565166 9.038493 17.636616 -26.322681 52.411179 -19.466616 -14.395566 29.410364 0.000014 -8.774820 -0.000006 15.813804 -17.889771 6.244675 -0.609779 -1.795654 -3.889324 -4.807104 -11.046809 -2.937849 -0.000021 -20.976000 -0.000012 -5.019984 -25.033579 -4.031927 0.000006 0.000001 0.000000 -10.634536 -5.686982 -3.565584 10.573239 -17.922922 -3.113894 -0.000012 -13.821203 -0.000009 -0.501791 -31.181549 -4.027060 -11.408320 -59.714714 7.623572 -13.982718 -7.150214 -2.875041 13.772710 -8.401466 -3.218233 0.347693 -34.211544 0.771644 -0.963040 -17.733391 2.621008 0.000000 0.000001 0.000000 -17.346441 -20.095236 -4.201777 21.757559 -1.638344 3.866440 -0.000005 -6.338824 -0.000003 -1.697610 -22.591778 -6.194048 -0.000001 -0.000002 -0.000001 45.135883 -74.183105 150.651825 37.623089 -58.560780 8.406895 25.393221 -0.049335 0.014830 -2.289613 -1.145828 8.762838 22.182140 -20.375902 49.933369 -16.701782 -16.743530 28.476532 0.000017 -12.690615 -0.000008 15.957004 -17.902758 2.842765 -0.105921 -1.513855 -4.275878 -5.039056 -5.612883 -2.953559 -0.000011 -11.020544 0.000001 -6.111330 -15.895404 -3.840501 -0.000001 -0.000002 -0.000001 -10.283384 -5.680302 -4.341843 11.028290 -11.302399 -2.372625 -1.384291 -14.238607 -6.320140 -0.625458 -26.924286 -3.827636 -4.252740 -50.116737 -3.844084 -13.708543 -7.363494 -3.720939 18.141142 -14.052728 -3.242661 -0.000018 -18.787304 -0.000003 -0.429721 -8.456075 2.555516 -0.000000 -0.000001 0.000002 -15.923573 -20.094511 -5.473581 30.419228 -7.190792 1.735952 -0.000007 -8.162938 0.000002 -1.861923 -22.861549 -6.167981 0.000004 -0.000005 -0.000002 -169.369385 -3.327831 0.076634 5.436380 -0.050442 0.137119 -76.910828 -8.714409 -5.863057 -5.706322 1.577648 2.144907 -1.000000 -0.000000 0.000000 10.396149 -1.687627 -3.329423 5.232333 -0.023123 0.112655 -77.566040 -4.673004 -6.735165 -6.266513 0.647130 1.634770 -1.000008 0.000000 0.000000
0.000000 0.000000 0.000000 0.000000 -0.000000 0.000000 0.060690 99.733330 -0.202143 88.978325 7.835668 90.047188 0.604190 -0.006206 0.023920 -10.516421 -0.397905 0.026279 18.251656 0.596427 -1.578219 22.791883 0.761221 2.622193 -2.519535 -0.726751 -0.588302 -33.315815 0.564985 -1.897113 0.000006 -0.000000 0.000000 0.030400 0.010331 0.038670 0.119562 -0.016847 0.044789 0.095343 0.034810 0.042403 -108.802994 -75.383942 122.285904 42.941528 -63.175858 8.887076 26.196657 -0.110068 -0.146312 0.324737 -3.748087 9.169155 17.636690 -26.322880 52.411335 -19.466784 -14.395686 29.410522 -0.000025 -8.774870 0.000000 15.861279 -17.927368 6.264222 -0.609772 -1.795657 -3.889338 -4.807075 -11.046834 -2.937856 0.000064 -20.976135 0.000012 -5.019949 -25.033726 -4.031854 0.000006 0.000001 -0.000001 -10.634546 -5.686959 -3.565591 10.573362 -17.923040 -3.113922 0.000036 -13.821286 0.000014 -0.501723 -31.181778 -4.026975 -11.456904 -59.828297 7.671503 -13.982733 -7.150181 -2.875046 13.772802 -8.401555 -3.218263 0.347821 -34.211777 0.771697 -0.963016 -17.733528 2.621096 0.000002 0.000001 -0.000001 -17.346413 -20.095219 -4.201797 21.757627 -1.638436 3.866419 0.000018 -6.338860 0.000007 -1.697529 -22.591925 -6.194019 -0.000001 -0.000004 -0.000003 44.495136 -74.125877 151.268478 37.067390 -57.923653 7.490738 25.916382 0.074639 -0.007388 -2.060959 -0.567772 9.270791 22.182220 -20.376003 49.933456 -16.702051 -16.743668 28.476748 -0.000041 -12.690734 0.000014 15.984219 -17.892664 2.778613 -0.105910 -1.513868 -4.275903 -5.039064 -5.612916 -2.953566 0.000036 -11.020666 -0.000011 -6.111319 -15.895580 -3.840508 -0.000000 -0.000000 0.000001 -10.283416 -5.680308 -4.341847 11.028412 -11.302533 -2.372674 -1.384237 -14.238751 -6.320177 -0.625349 -26.924664 -3.827649 -4.209801 -50.018440 -3.840320 -13.708588 -7.363500 -3.720946 18.141336 -14.052911 -3.242740 0.000063 -18.787516 -0.000023 -0.429684 -8.456184 2.555535 -0.000000 0.000002 -0.000000 -15.923591 -20.094589 -5.473600 30.419468 -7.190952 1.735886 0.000024 -8.163023 -0.000014 -1.861835 -22.861834 -6.168040 -0.000000 -0.000005 -0.000001 -169.347870 -3.342608 0.006673 5.454829 -0.041478 0.112029 -76.992569 -8.729808 -5.907226 -5.661534 1.586881 2.147465 -0.999997 0.000000 0.000000 10.389091 -1.683306 -3.303608 5.257433 -0.029482 0.094891 -77.566177 -4.622804 -6.710382 -6.268522 0.649955 1.629858 -1.000004 0.000000 -0.000000
